------Armin Van Buuren vs Sophie Elis Bextor - Not Giving Up On Love  HD----------

Format                           : MPEG-4
Format profile                   : Base Media / Version 2
Codec ID                         : mp42
File size                        : 62.1 MiB
Duration                         : 2mn 57s
Overall bit rate                 : 2 935 Kbps
Encoded date                     : UTC 2010-10-12 15:11:01
Tagged date                      : UTC 2010-10-12 15:11:01
gsst                             : 0
gstd                             : 177520
gssd                             : BCA9FD842MH1308082617733695
gshh                             :

Video
ID                               : 1
Format                           : AVC
Format/Info                      : Advanced Video Codec
Format profile                   : High@L3.1
Format settings, CABAC           : Yes
Format settings, ReFrames        : 1 frame
Codec ID                         : avc1
Codec ID/Info                    : Advanced Video Coding
Duration                         : 2mn 57s
Bit rate mode                    : Variable
Bit rate                         : 2 804 Kbps
Maximum bit rate                 : 7 736 Kbps
Width                            : 1 280 pixels
Height                           : 720 pixels
Display aspect ratio             : 16:9
Frame rate mode                  : Constant
Frame rate                       : 25.000 fps
Color space                      : YUV
Chroma subsampling               : 4:2:0
Bit depth                        : 8 bits
Scan type                        : Progressive
Bits/(Pixel*Frame)               : 0.122
Stream size                      : 59.3 MiB (96%)
Tagged date                      : UTC 2010-10-12 15:11:05

Audio
ID                               : 2
Format                           : AAC
Format/Info                      : Advanced Audio Codec
Format version                   : Version 4
Format profile                   : LC
Format settings, SBR             : No
Codec ID                         : 40
Duration                         : 2mn 57s
Bit rate mode                    : Variable
Bit rate                         : 126 Kbps
Maximum bit rate                 : 161 Kbps
Channel(s)                       : 2 channels
Channel positions                : Front: L R
Sampling rate                    : 44.1 KHz
Stream size                      : 2.66 MiB (4%)
Title                            : (C) 2007 Google Inc. v08.13.2007.
Encoded date                     : UTC 2010-10-12 15:11:03
Tagged date                      : UTC 2010-10-12 15:11:05

=============================SCREEN SHOT===========================================

                 http://bayimg.com/KaiCeaadK
===================================================================================

        like page on FB   look for :haunting.summer torrents: on facebook 

 ==============================================================================